<svg width="503" height="485" fill="none" xmlns="http://www.w3.org/2000/svg">
  <rect width="503" height="484" rx="38" fill="#0C0C0C"/>
  <path d="m192 400.6 36.3-324.8c1-8.5-7-15-15-12A175.5 175.5 0 0 0 114 155c-3.5 7.5 2.2 15.7 10.5 15.7h299c8 0 13.8-7.9 10.5-15.2a182.3 182.3 0 0 0-76.7-81.2c-7-3.9-15 1-15.8 8.9l-28.2 303c-.7 8 6.7 14.5 14.4 12a181.3 181.3 0 0 0 109.6-100.5c3-7.1-2.6-14.3-10.3-14.3H98.2c-5.7 0-10.6 4-11.6 9.7L65.2 408c-1.4 7.8 5 14.8 13 14l103.3-11c5.6-.5 10-4.9 10.6-10.4Z" stroke="#fff" stroke-width="28" stroke-linejoin="round"/>
</svg>
