<svg width="474" height="474" fill="none" xmlns="http://www.w3.org/2000/svg">
  <rect width="474" height="474" rx="67" fill="#131313"/>
  <circle cx="237.5" cy="337.1" r="37" fill="#F8F8F8"/>
  <path d="M241.9 266a5 5 0 0 1-9.6 0L160.8 33.5a5 5 0 0 1 4.8-6.5h143a5 5 0 0 1 4.8 6.5l-71.5 232.7ZM300.8 341.5a5 5 0 0 1 0-9.5l85-26a5 5 0 0 1 6.4 4.8v51.9a5 5 0 0 1-6.4 4.8l-85-26ZM173.4 332a5 5 0 0 1 0 9.5l-85 26a5 5 0 0 1-6.4-4.8v-51.9a5 5 0 0 1 6.5-4.8l84.9 26ZM288.2 290.8a5 5 0 0 1-6.8-6.7l27.5-51.7a5 5 0 0 1 8-1.2l24.2 24.2a5 5 0 0 1-1.2 8l-51.7 27.4ZM192.4 284a5 5 0 0 1-6.7 6.8l-51.8-27.5a5 5 0 0 1-1.1-8l24.2-24.1a5 5 0 0 1 7.9 1.2l27.5 51.7ZM186 382.7a5 5 0 0 1 6.8 6.8l-27.5 51.7a5 5 0 0 1-8 1.2l-24.1-24.2a5 5 0 0 1 1.2-8l51.7-27.5ZM281.4 389.6a5 5 0 0 1 6.8-6.8l51.7 27.5a5 5 0 0 1 1.2 8l-24.2 24.2a5 5 0 0 1-8-1.2l-27.5-51.7Z" fill="#F8F8F8"/>
</svg>
